<svg width="30" height="18" viewBox="0 0 30 18" fill="none" xmlns="http://www.w3.org/2000/svg">
<path d="M18.9677 1.19067H26.2041V2.92648H18.9677V1.19067ZM11.7168 8.05858C13.3164 7.30185 14.1543 6.15063 14.1543 4.37179C14.1543 0.853556 11.5064 0 8.44865 0H0.0333862V17.6593H8.68442C11.9272 17.6593 14.9705 16.1172 14.9705 12.5308C14.9705 10.3144 13.9113 8.67543 11.7168 8.05858ZM3.95809 3.01255H7.63977C9.05803 3.01255 10.3312 3.40347 10.3312 5.03168C10.3312 6.53078 9.34095 7.13329 7.9372 7.13329H3.95809V3.01255ZM8.14758 14.6611H3.95446V9.79797H8.23101C9.95759 9.79797 11.0494 10.5117 11.0494 12.3192C11.0494 14.098 9.74721 14.6611 8.14758 14.6611ZM29.0334 11.4513C29.0334 7.66766 26.7954 4.51524 22.7473 4.51524C18.8117 4.51524 16.1348 7.44531 16.1348 11.2863C16.1348 15.2672 18.6703 18 22.7473 18C25.8341 18 27.8328 16.6264 28.794 13.6964H25.6637C25.3227 14.7902 23.9371 15.364 22.8598 15.364C20.7777 15.364 19.6895 14.159 19.6895 12.1112H29.008C29.0189 11.8996 29.0334 11.6772 29.0334 11.4513ZM19.6895 9.8948C19.802 8.21279 20.9373 7.16198 22.6349 7.16198C24.4195 7.16198 25.3118 8.19845 25.4678 9.8948H19.6895Z" fill="#959595"/>
</svg>
